# xmcd
#
# Track frame offsets:
#	150
#	20432
#	41157
#	61974
#	80761
#	90834
#	110352
#	132533
#	150866
#	178491
#	201267
#	217641
#	241818
#	257553
#
# Disc length: 3743 seconds
#
# Revision: 0
# Processed by: cddbd v1.5.1PL2 Copyright (c) Steve Scherf et al.
# Submitted via: EasyCDDAExtractor 8.1.2.3
#
DISCID=b40e9d0e
DTITLE=Alpha 5.20 - Vivre et mourir a Dakar
DYEAR=1900
DGENRE=Rap
TTITLE0=Comme Moi
TTITLE1=Le Mal Qu'on Fait Feat Medine
TTITLE2=Le Monde Est Un Ghetto Feat O'
TTITLE3=Securite Sociale Feat Larsen,
TTITLE4=Interlude
TTITLE5=Gz Up
TTITLE6=Dakar Blood Feat Sefyu
TTITLE7=Reussir Ou Mourir Feat Shayz (
TTITLE8=Enleves Tes Pessas
TTITLE9=Armes A Feu Feat Union HP and Va
TTITLE10=Boss 2 Panam
TTITLE11=Mon Crack Feat Iron Sy and Lino
TTITLE12=Animal Feat KHF
TTITLE13=Quand Les Thugs Prient
EXTD=
EXTT0=
EXTT1=
EXTT2=
EXTT3=
EXTT4=
EXTT5=
EXTT6=
EXTT7=
EXTT8=
EXTT9=
EXTT10=
EXTT11=
EXTT12=
EXTT13=
PLAYORDER=
